Coordinates
version=1
nRows=19
nColumns=24
inDegrees=yes

Units are S.I. units (second, meters, Newtons, ...)
Angles are in degrees.

endheader
time	pelvis_tilt	pelvis_list	pelvis_rotation	pelvis_tx	pelvis_ty	pelvis_tz	hip_flexion_r	hip_adduction_r	hip_rotation_r	knee_angle_r	ankle_angle_r	subtalar_angle_r	mtp_angle_r	hip_flexion_l	hip_adduction_l	hip_rotation_l	knee_angle_l	ankle_angle_l	subtalar_angle_l	mtp_angle_l	lumbar_extension	lumbar_bending	lumbar_rotation
      0.58300000	      1.03221991	      3.36417563	      7.90899770	     -0.84376480	      1.00523893	      0.33659210	     22.93638975	     -3.99344641	    -10.14197050	      3.93761133	      2.32890682	      0.41108741	      4.09857277	    -17.38667673	      6.80788017	     13.70136879	     -4.23695489	     14.66175596	     -9.41471383	     -4.57762499	     -7.48069459	     -6.19990443	     -6.12831431
      0.58716667	      1.07660289	      3.19850632	      7.99066853	     -0.83781742	      1.00465888	      0.33652445	     22.99460809	     -3.77982270	    -10.08128234	      3.22526583	      2.43540820	      0.11868120	      4.11342559	    -17.58551294	      6.60026522	     13.71720953	     -4.62717262	     14.82192204	     -9.44390322	     -4.58108543	     -7.44147263	     -5.97062439	     -6.17401763
      0.59133333	      1.09612826	      3.02103373	      8.06137673	     -0.83179333	      1.00405338	      0.33650179	     23.06205220	     -3.54734042	     -9.88775159	      2.51300804	      2.40583673	     -0.40945433	      4.15884788	    -17.74107489	      6.38234705	     13.63013884	     -5.05635070	     15.07944845	     -9.21005050	     -4.59542105	     -7.38514561	     -5.74789695	     -6.33337147
      0.59550000	      1.14350663	      2.85351588	      8.13692822	     -0.82577458	      1.00352959	      0.33646711	     23.09144499	     -3.32203329	     -9.69095971	      1.78777262	      2.31620035	     -0.96795091	      4.22816420	    -17.89126530	      6.17601376	     13.47437489	     -5.55498470	     15.28493476	     -9.00134658	     -4.61313890	     -7.35332954	     -5.53004192	     -6.40980959
      0.59966667	      1.20547068	      2.67057484	      8.20224408	     -0.81968198	      1.00303426	      0.33646062	     23.09823834	     -3.07164490	     -9.45847381	      1.05394515	      2.18202661	     -1.56321053	      4.30520913	    -18.07215954	      5.95173034	     13.36740434	     -6.03104543	     15.45891619	     -8.84639848	     -4.62509667	     -7.32298185	     -5.29049980	     -6.49593756
      0.60383333	      1.26629605	      2.48650889	      8.25935359	     -0.81353896	      1.00256437	      0.33648159	     23.09666122	     -2.81163704	     -9.17222993	      0.32609829	      1.97067639	     -2.23626017	      4.39499441	    -18.24267058	      5.72798445	     13.23189019	     -6.52106860	     15.60617704	     -8.68233597	     -4.62846808	     -7.28763166	     -5.05110607	     -6.57291641
      0.60800000	      1.32649570	      2.29861374	      8.31760469	     -0.80735450	      1.00212334	      0.33652450	     23.08353506	     -2.54211577	     -8.85149539	     -0.38506546	      1.67735330	     -2.97648254	      4.49518386	    -18.40237899	      5.49911294	     13.08804556	     -7.03212039	     15.72915418	     -8.51884553	     -4.62045770	     -7.24317867	     -4.81141925	     -6.65082669
      0.61216667	      1.39088448	      2.10146716	      8.35928842	     -0.80110972	      1.00170771	      0.33660055	     23.05931751	     -2.25084827	     -8.48430588	     -1.08333944	      1.33212191	     -3.74009178	      4.58827382	    -18.57538864	      5.26297117	     12.96582900	     -7.52691748	     15.82458053	     -8.36593589	     -4.60405249	     -7.17813919	     -4.54023395	     -6.72982150
      0.61633333	      1.45026793	      1.92215130	      8.42099814	     -0.79488325	      1.00133479	      0.33671149	     23.02325115	     -1.97448813	     -8.08393693	     -1.74078125	      0.83843284	     -4.65235806	      4.72769442	    -18.69164401	      5.03934327	     12.77179322	     -8.12555729	     15.92113315	     -8.14169694	     -4.56674158	     -7.15121382	     -4.34573271	     -6.80063558
      0.62050000	      1.52096058	      1.72621265	      8.46722292	     -0.78857315	      1.00099397	      0.33685621	     22.96851624	     -1.66886106	     -7.66404980	     -2.37945062	      0.29462490	     -5.56485087	      4.87380397	    -18.83070715	      4.79697872	     12.58093334	     -8.70150602	     15.96978768	     -7.94550593	     -4.51361910	     -7.10197324	     -4.10539475	     -6.87178599
      0.62466667	      1.59620407	      1.53119448	      8.51257758	     -0.78224808	      1.00068885	      0.33703165	     22.90090227	     -1.35706280	     -7.22035418	     -2.99213161	     -0.32021357	     -6.50964641	      5.03119721	    -18.96392893	      4.55185178	     12.38352322	     -9.29764510	     16.00115731	     -7.72817121	     -4.44184073	     -7.05553133	     -3.87070098	     -6.93893053
      0.62883333	      1.63175986	      1.31882890	      8.54841814	     -0.77585010	      1.00037120	      0.33723911	     22.87301778	     -1.02557443	     -6.76385000	     -3.59055939	     -1.00441042	     -7.43221102	      5.17350052	    -19.04643481	      4.29631885	     12.19056143	     -9.90128787	     15.97035400	     -7.52401310	     -4.36270766	     -6.94676975	     -3.60403847	     -7.01332082
      0.63300000	      1.68820261	      1.12533840	      8.59040353	     -0.76946644	      1.00012012	      0.33748708	     22.81616656	     -0.70580059	     -6.29691427	     -4.16782769	     -1.74637696	     -8.41274072	      5.33206584	    -19.12632802	      4.05043486	     11.96167429	    -10.55717302	     15.93860026	     -7.27910180	     -4.25706273	     -6.87302256	     -3.38408597	     -7.07447205
      0.63716667	      1.75976522	      0.94193802	      8.63631802	     -0.76308031	      0.99992113	      0.33776652	     22.74061103	     -0.39198452	     -5.83229863	     -4.73504101	     -2.51287118	     -9.41480524	      5.54003240	    -19.19798868	      3.80719994	     11.71288053	    -11.26337341	     15.91637963	     -6.98821082	     -4.09982062	     -6.82949090	     -3.19582599	     -7.12658244
      0.64133333	      1.86587200	      0.72910833	      8.64669388	     -0.75662611	      0.99978800	      0.33811988	     22.63224999	     -0.02862341	     -5.37394217	     -5.29721257	     -3.29721364	    -10.29739821	      6.09036878	    -19.29482564	      3.52513717	     11.32183693	    -11.97867941	     15.88052252	     -6.53158648	     -3.64182630	     -6.80112809	     -2.95042769	     -7.14503251
      0.64550000	      1.83905862	      0.52629282	      8.70763794	     -0.75015677	      0.99955798	      0.33839346	     22.66153837	      0.28245466	     -4.96920549	     -5.86033815	     -4.09306355	    -11.11500794	      6.22134637	    -19.24250938	      3.27538204	     11.19935720	    -12.70693716	     15.65150658	     -6.40448030	     -3.50200338	     -6.60947816	     -2.71417185	     -7.24002051
      0.64966667	      1.92211993	      0.33351824	      8.73728949	     -0.74369176	      0.99948153	      0.33878008	     22.57639258	      0.61712554	     -4.54337996	     -6.42132370	     -4.90368012	    -12.03523986	      8.41320711	    -19.26846014	      3.00449881	     10.82072676	    -13.49955482	     15.49095890	     -6.02192409	     -0.93134831	     -6.56217001	     -2.52252424	     -7.29133908
      0.65383333	      1.96662863	      0.13155024	      8.77847322	     -0.73719956	      0.99941056	      0.33915384	     22.53149417	      0.94922463	     -4.15070501	     -6.98724933	     -5.66998977	    -12.85450980	      8.40493419	    -19.24698745	      2.73183743	     10.55603794	    -14.30544847	     15.27339987	     -5.73610919	     -0.86725038	     -6.45653319	     -2.31477598	     -7.33727313
      0.65800000	      2.01518869	     -0.07785834	      8.81038475	     -0.73068533	      0.99938570	      0.33956267	     22.48771552	      1.29148446	     -3.77532375	     -7.57066292	     -6.36349254	    -13.58720353	      8.41276720	    -19.20484153	      2.44293583	     10.21723781	    -15.14660308	     15.04842653	     -5.33864482	     -0.74060023	     -6.35742176	     -2.09559839	     -7.38457244
